<svg width="14" height="14" viewBox="0 0 14 14" fill="none" xmlns="http://www.w3.org/2000/svg">
<path d="M1.84062 4.74648L0.854004 4.37316C1.28065 3.27988 1.97395 2.29326 2.88057 1.54663L3.54721 2.37326C2.80058 2.98656 2.21393 3.81319 1.84062 4.74648Z" fill="#DA0444"/>
<path d="M7.20048 13.5727C3.12067 13.5727 -0.132499 9.94623 0.480804 5.7331C0.5608 5.25312 0.694126 4.77315 0.854118 4.31983L1.01411 3.89319L5.97387 5.57311L5.73388 6.10641C5.60055 6.39973 5.54722 6.69305 5.60055 7.01304C5.70721 7.70634 6.26719 8.26631 6.96049 8.37297C7.4938 8.45297 8.00044 8.26631 8.34709 7.893L8.74707 7.46635L10.9336 9.9729C11.1203 10.1862 11.0936 10.5329 10.8803 10.7195C10.667 10.9062 10.3203 10.8795 10.1337 10.6662L8.66707 8.98628C8.18709 9.30626 7.62712 9.46625 7.04048 9.43959C5.73388 9.38626 4.66726 8.34631 4.53394 7.0397C4.50727 6.74638 4.53394 6.47973 4.58727 6.18641L1.68075 5.19979C1.54742 5.6531 1.49408 6.10642 1.46742 6.55973C1.38742 9.35959 3.38733 11.8928 6.16053 12.3728C7.97377 12.6928 9.78702 12.1595 11.0936 10.9062L11.8136 11.6795C10.587 12.9328 8.93373 13.5727 7.20048 13.5727Z" fill="#DA0444"/>
<path d="M11.8401 11.7328L11.1201 10.9595C11.8667 10.2662 12.4001 9.38622 12.6934 8.42627L13.7067 8.71959C13.36 9.8662 12.72 10.9062 11.8401 11.7328Z" fill="#DA0444"/>
<path d="M5.76049 6.10642L4.80054 5.65311C4.98719 5.25313 5.28052 4.87981 5.65383 4.61316L6.26713 5.46645C6.05381 5.65311 5.86715 5.86643 5.76049 6.10642Z" fill="#DA0444"/>
<path d="M7.20023 9.46629C5.73363 9.46629 4.53369 8.26635 4.53369 6.79976C4.53369 6.39978 4.61369 6.02646 4.77368 5.67981L5.73363 6.13312C5.62697 6.34644 5.57364 6.58643 5.57364 6.79976C5.57364 7.67971 6.2936 8.39968 7.17356 8.39968C7.62687 8.39968 8.02686 8.21302 8.34685 7.89304L9.12014 8.613C8.64016 9.14631 7.94686 9.46629 7.20023 9.46629Z" fill="#DA0444"/>
<path d="M9.81361 7.35962L8.77365 7.11963C8.80032 7.01297 8.80032 6.87964 8.80032 6.77298C8.80032 5.89303 8.08035 5.17306 7.2004 5.17306C6.85375 5.17306 6.53376 5.27972 6.26711 5.46638L5.65381 4.61309C6.10712 4.2931 6.64042 4.10645 7.2004 4.10645C8.66699 4.10645 9.86694 5.30639 9.86694 6.77298C9.86694 6.98631 9.84027 7.17296 9.81361 7.35962Z" fill="#DA0444"/>
<path d="M9.14684 8.61284L8.37354 7.89287C8.56019 7.67955 8.72019 7.41289 8.77352 7.14624L9.81347 7.38623C9.70681 7.83954 9.46682 8.26619 9.14684 8.61284Z" fill="#DA0444"/>
<path d="M13.5467 9.25289L8.66689 7.59963L8.77355 7.14632C8.80021 7.03966 8.80021 6.90633 8.80021 6.79967C8.80021 5.91971 8.08025 5.19975 7.20029 5.19975C6.85364 5.19975 6.53366 5.30641 6.267 5.49307L5.86702 5.78639L2.45386 1.89324L2.88051 1.54659C4.10711 0.559973 5.62703 0 7.20029 0C10.9334 0 14 3.03985 14 6.79967C14 7.46631 13.8933 8.10628 13.7066 8.74624L13.5467 9.25289ZM9.86683 6.87967L12.8267 7.86629C12.9067 7.51964 12.9333 7.14632 12.9333 6.77301C12.9333 3.62649 10.3735 1.03995 7.20029 1.03995C6.05368 1.03995 4.9604 1.3866 4.00045 1.9999L6.05368 4.34646C6.40033 4.18646 6.80031 4.0798 7.20029 4.0798C8.66689 4.0798 9.86683 5.27975 9.86683 6.74634C9.86683 6.82634 9.86683 6.853 9.86683 6.87967Z" fill="#DA0444"/>
<path opacity="0.2" d="M6.77401 0.400024C5.20067 0.400024 3.68068 0.960024 2.45401 1.94669L2.02734 2.29336L2.05401 2.32002C1.46734 2.88002 0.987339 3.57336 0.640673 4.32002H0.614012L0.454011 4.74669V4.77336V4.80002C0.294011 5.25336 0.160679 5.70669 0.080679 6.16002C-0.559321 10.3734 2.69401 14 6.80067 14C8.53401 14 10.1873 13.36 11.4407 12.16C12.1873 11.4667 12.774 10.6134 13.1207 9.65336H13.1473L13.3073 9.12003C13.494 8.48003 13.6007 7.84002 13.6007 7.17336C13.574 3.46669 10.534 0.400024 6.77401 0.400024ZM2.77401 3.12002L4.80067 5.44002C4.74734 5.52002 4.66735 5.57336 4.61401 5.65336L1.65401 4.64002C1.94734 4.08002 2.32067 3.57336 2.77401 3.12002ZM8.34735 7.54669C8.29401 7.84002 8.16068 8.08002 7.94735 8.29336C7.89401 8.34669 7.86735 8.37336 7.81401 8.42669C7.78735 8.42669 7.78734 8.45336 7.76068 8.45336C7.73401 8.48003 7.70734 8.50669 7.65401 8.53336C7.62734 8.53336 7.62734 8.56002 7.60067 8.56002C7.57401 8.58669 7.54734 8.58669 7.49401 8.61336C7.46734 8.61336 7.44067 8.64003 7.44067 8.64003C7.41401 8.66669 7.36067 8.66669 7.33401 8.69336C7.30734 8.69336 7.28068 8.72003 7.28068 8.72003C7.25401 8.72003 7.20068 8.74669 7.14735 8.74669C7.12068 8.74669 7.12068 8.74669 7.09401 8.74669C7.04068 8.74669 6.98734 8.77336 6.90734 8.77336H6.88068C6.82735 8.77336 6.77401 8.77336 6.72068 8.77336C6.69401 8.77336 6.66734 8.77336 6.66734 8.77336C6.64067 8.77336 6.58734 8.77336 6.56068 8.77336C6.53401 8.77336 6.50735 8.77336 6.48068 8.77336C6.42735 8.77336 6.34734 8.74669 6.29401 8.72003C6.26734 8.72003 6.24068 8.69336 6.21401 8.69336C6.16068 8.66669 6.10734 8.66669 6.05401 8.64003C6.02734 8.64003 6.00067 8.61336 6.00067 8.61336C5.94734 8.58669 5.86735 8.53336 5.81401 8.50669L5.78734 8.48002C5.65401 8.37336 5.54734 8.26669 5.46734 8.16002C5.46734 8.16002 5.46734 8.13336 5.44067 8.13336C5.38734 8.08002 5.36067 8.00002 5.33401 7.94669C5.33401 7.94669 5.33401 7.92003 5.30734 7.92003C5.28067 7.86669 5.25401 7.78669 5.22734 7.70669C5.22734 7.70669 5.22734 7.70669 5.22734 7.68002C5.20068 7.60002 5.20067 7.54669 5.17401 7.46669C5.17401 7.44002 5.17401 7.44002 5.17401 7.41336C5.17401 7.33336 5.14735 7.28002 5.14735 7.20002C5.14735 7.20002 5.14735 7.20002 5.14735 7.17336C5.14735 7.12002 5.14734 7.04002 5.17401 6.98669C5.17401 6.96002 5.17401 6.93336 5.17401 6.93336C5.17401 6.88002 5.20067 6.82669 5.20067 6.77336C5.20067 6.74669 5.20068 6.74669 5.22734 6.72002C5.25401 6.66669 5.28067 6.58669 5.30734 6.53336C5.41401 6.29336 5.60068 6.08002 5.81401 5.92002C6.08068 5.73336 6.40068 5.62669 6.74735 5.62669C7.62735 5.62669 8.34735 6.34669 8.34735 7.22669C8.37401 7.30669 8.37401 7.44002 8.34735 7.54669ZM10.694 11.3867C9.38734 12.6134 7.57401 13.1734 5.76068 12.8534C2.98734 12.3734 0.987341 9.84002 1.06734 7.04002C1.09401 6.58669 1.14735 6.10669 1.28068 5.68002L4.18734 6.66669C4.16068 6.74669 4.16067 6.82669 4.13401 6.90669C4.13401 6.93336 4.13401 6.96002 4.13401 6.98669C4.13401 7.04002 4.13401 7.12002 4.13401 7.20002C4.13401 7.22669 4.13401 7.22669 4.13401 7.25336V7.28002C4.13401 7.36002 4.13401 7.44002 4.13401 7.52002C4.13401 7.60002 4.16068 7.68002 4.16068 7.78669C4.16068 7.81336 4.16068 7.84002 4.18734 7.86669C4.18734 7.92002 4.21401 7.97336 4.24067 8.02669C4.24067 8.08002 4.26734 8.10669 4.29401 8.16002C4.29401 8.18669 4.32068 8.21336 4.32068 8.26669C4.34734 8.32002 4.37401 8.37336 4.40067 8.42669C4.40067 8.45336 4.42734 8.45336 4.42734 8.48002C4.45401 8.53336 4.50734 8.61336 4.53401 8.66669C4.85401 9.20002 5.33401 9.60003 5.92068 9.78669C5.94734 9.78669 5.94735 9.78669 5.94735 9.81336C6.00068 9.84002 6.05401 9.84002 6.08068 9.86669C6.10735 9.86669 6.16068 9.89336 6.18734 9.89336C6.21401 9.89336 6.26734 9.92003 6.29401 9.92003C6.34734 9.92003 6.40068 9.94669 6.45401 9.94669C6.48068 9.94669 6.53401 9.94669 6.56068 9.94669C6.58734 9.94669 6.61401 9.94669 6.64067 9.94669C6.66734 9.94669 6.69401 9.94669 6.72068 9.94669C6.74734 9.94669 6.74734 9.94669 6.77401 9.94669H6.80067C6.85401 9.94669 6.93401 9.94669 6.98734 9.94669C7.01401 9.94669 7.01401 9.94669 7.04067 9.94669C7.12067 9.94669 7.20068 9.92003 7.28068 9.92003C7.30735 9.92003 7.30734 9.92002 7.33401 9.89336C7.38734 9.86669 7.46734 9.86669 7.52068 9.84003C7.54734 9.84003 7.57401 9.81336 7.60067 9.81336C7.65401 9.78669 7.70734 9.78669 7.76068 9.76002C7.78734 9.76002 7.81401 9.73336 7.84067 9.73336C7.89401 9.70669 7.97401 9.68003 8.02734 9.65336C8.05401 9.65336 8.05401 9.62669 8.08068 9.62669C8.13401 9.60002 8.21401 9.54669 8.26734 9.52003L9.73401 11.2C9.92067 11.4134 10.2673 11.44 10.4807 11.2534C10.694 11.0667 10.7207 10.72 10.534 10.5067L9.01401 8.77336C9.06735 8.66669 9.12067 8.56002 9.17401 8.48002L12.0807 9.46669C11.7873 10.1067 11.3073 10.8 10.694 11.3867ZM12.4007 8.29336L9.44067 7.30669C9.44067 7.28002 9.44067 7.25336 9.44067 7.22669C9.44067 5.76002 8.24067 4.56002 6.77401 4.56002C6.69401 4.56002 6.58734 4.56002 6.50734 4.58669C6.48067 4.58669 6.45401 4.58669 6.42734 4.58669C6.34734 4.58669 6.29401 4.61336 6.21401 4.61336C6.18735 4.61336 6.18734 4.61336 6.16068 4.61336C6.08068 4.64002 6.00068 4.66669 5.92068 4.69336C5.89401 4.69336 5.89401 4.72002 5.86734 4.72002C5.81401 4.74669 5.73401 4.77336 5.68068 4.80002C5.68068 4.80002 5.65401 4.80002 5.65401 4.82669L3.60067 2.48002C4.53401 1.84002 5.65401 1.52002 6.80067 1.52002C9.94734 1.52002 12.534 4.08002 12.534 7.25336C12.5073 7.57336 12.4807 7.92002 12.4007 8.29336Z" fill="#DA0444"/>
<path opacity="0.2" d="M7.04061 0.133301C5.46727 0.133301 3.94728 0.693301 2.72061 1.67997L2.29394 2.02663L2.32061 2.0533C1.73395 2.6133 1.25394 3.30663 0.907274 4.0533H0.880614L0.720612 4.47997V4.50663V4.5333C0.560612 4.98663 0.427281 5.43997 0.347281 5.8933C-0.292719 10.1066 2.96061 13.7333 7.06728 13.7333C8.80061 13.7333 10.4539 13.0933 11.7073 11.8933C12.4539 11.2 13.0406 10.3466 13.3873 9.38663H13.4139L13.5739 8.8533C13.7606 8.2133 13.8673 7.5733 13.8673 6.90663C13.8406 3.19997 10.8006 0.133301 7.04061 0.133301ZM3.04061 2.8533L5.06728 5.1733C5.01394 5.2533 4.93395 5.30663 4.88061 5.38663L1.92061 4.3733C2.21395 3.8133 2.58727 3.30663 3.04061 2.8533ZM8.61395 7.27997C8.56061 7.5733 8.42728 7.8133 8.21395 8.02663C8.16061 8.07997 8.13395 8.10663 8.08061 8.15997C8.05395 8.15997 8.05394 8.18663 8.02728 8.18663C8.00061 8.2133 7.97395 8.23997 7.92061 8.26663C7.89395 8.26663 7.89394 8.2933 7.86728 8.2933C7.84061 8.31997 7.81394 8.31997 7.76061 8.34663C7.73394 8.34663 7.70727 8.3733 7.70727 8.3733C7.68061 8.39997 7.62728 8.39997 7.60061 8.42663C7.57394 8.42663 7.54728 8.4533 7.54728 8.4533C7.52061 8.4533 7.46728 8.47997 7.41395 8.47997C7.38728 8.47997 7.38728 8.47997 7.36061 8.47997C7.30728 8.47997 7.25394 8.50663 7.17394 8.50663H7.14728C7.09395 8.50663 7.04061 8.50663 6.98728 8.50663C6.96061 8.50663 6.93394 8.50663 6.93394 8.50663C6.90728 8.50663 6.85394 8.50663 6.82728 8.50663C6.80061 8.50663 6.77395 8.50663 6.74728 8.50663C6.69395 8.50663 6.61394 8.47997 6.56061 8.4533C6.53394 8.4533 6.50728 8.42663 6.48061 8.42663C6.42728 8.39997 6.37395 8.39997 6.32061 8.3733C6.29395 8.3733 6.26728 8.34663 6.26728 8.34663C6.21394 8.31997 6.13395 8.26663 6.08061 8.23997L6.05395 8.2133C5.92061 8.10663 5.81394 7.99997 5.73394 7.8933C5.73394 7.8933 5.73394 7.86663 5.70727 7.86663C5.65394 7.8133 5.62728 7.7333 5.60061 7.67997C5.60061 7.67997 5.60061 7.6533 5.57394 7.6533C5.54727 7.59997 5.52061 7.51997 5.49394 7.43997C5.49394 7.43997 5.49394 7.43997 5.49394 7.4133C5.46728 7.3333 5.46727 7.27997 5.44061 7.19997C5.44061 7.1733 5.44061 7.1733 5.44061 7.14663C5.44061 7.06663 5.41395 7.0133 5.41395 6.9333C5.41395 6.9333 5.41395 6.9333 5.41395 6.90663C5.41395 6.8533 5.41394 6.7733 5.44061 6.71997C5.44061 6.6933 5.44061 6.66663 5.44061 6.66663C5.44061 6.6133 5.46728 6.55997 5.46728 6.50663C5.46728 6.47997 5.46728 6.47997 5.49394 6.4533C5.52061 6.39997 5.54727 6.31997 5.57394 6.26663C5.68061 6.02663 5.86728 5.8133 6.08061 5.6533C6.34728 5.46663 6.66728 5.35997 7.01395 5.35997C7.89395 5.35997 8.61395 6.07997 8.61395 6.95997C8.64061 7.03997 8.64061 7.1733 8.61395 7.27997ZM10.9606 11.12C9.65394 12.3466 7.84061 12.9066 6.02728 12.5866C3.25394 12.1066 1.25394 9.5733 1.33394 6.7733C1.36061 6.31997 1.41395 5.83997 1.54728 5.4133L4.45395 6.39997C4.42728 6.47997 4.42728 6.55997 4.40061 6.63997C4.40061 6.66663 4.40061 6.6933 4.40061 6.71997C4.40061 6.7733 4.40061 6.8533 4.40061 6.9333C4.40061 6.95997 4.40061 6.95997 4.40061 6.98663V7.0133C4.40061 7.0933 4.40061 7.1733 4.40061 7.2533C4.40061 7.3333 4.42728 7.4133 4.42728 7.51997C4.42728 7.54663 4.42728 7.5733 4.45395 7.59997C4.45395 7.6533 4.48061 7.70663 4.50727 7.75997C4.50727 7.8133 4.53394 7.83997 4.56061 7.8933C4.56061 7.91997 4.58728 7.94663 4.58728 7.99997C4.61395 8.0533 4.64061 8.10663 4.66728 8.15997C4.66728 8.18663 4.69394 8.18663 4.69394 8.2133C4.72061 8.26663 4.77394 8.34663 4.80061 8.39997C5.12061 8.9333 5.60061 9.3333 6.18728 9.51997C6.21395 9.51997 6.21395 9.51997 6.21395 9.54663C6.26728 9.5733 6.32061 9.5733 6.34728 9.59997C6.37395 9.59997 6.42728 9.62663 6.45395 9.62663C6.48061 9.62663 6.53394 9.6533 6.56061 9.6533C6.61394 9.6533 6.66728 9.67997 6.72061 9.67997C6.74728 9.67997 6.80061 9.67997 6.82728 9.67997C6.85394 9.67997 6.88061 9.67997 6.90727 9.67997C6.93394 9.67997 6.96061 9.67997 6.98728 9.67997C7.01395 9.67997 7.01394 9.67997 7.04061 9.67997H7.06728C7.12061 9.67997 7.20061 9.67997 7.25395 9.67997C7.28061 9.67997 7.28061 9.67997 7.30727 9.67997C7.38727 9.67997 7.46728 9.6533 7.54728 9.6533C7.57395 9.6533 7.57394 9.6533 7.60061 9.62663C7.65394 9.59997 7.73395 9.59997 7.78728 9.5733C7.81395 9.5733 7.84061 9.54663 7.86728 9.54663C7.92061 9.51997 7.97394 9.51997 8.02728 9.4933C8.05394 9.4933 8.08061 9.46663 8.10727 9.46663C8.16061 9.43997 8.24061 9.4133 8.29394 9.38663C8.32061 9.38663 8.32061 9.35997 8.34728 9.35997C8.40061 9.3333 8.48061 9.27997 8.53394 9.2533L10.0006 10.9333C10.1873 11.1466 10.5339 11.1733 10.7473 10.9866C10.9606 10.8 10.9873 10.4533 10.8006 10.24L9.28061 8.50663C9.33395 8.39997 9.38727 8.2933 9.44061 8.2133L12.3473 9.19997C12.0539 9.83997 11.5739 10.5333 10.9606 11.12ZM12.6673 8.02663L9.70727 7.03997C9.70727 7.0133 9.70727 6.98663 9.70727 6.95997C9.70727 5.4933 8.50727 4.2933 7.04061 4.2933C6.96061 4.2933 6.85394 4.2933 6.77394 4.31997C6.74727 4.31997 6.72061 4.31997 6.69394 4.31997C6.61394 4.31997 6.56061 4.34663 6.48061 4.34663C6.45395 4.34663 6.45394 4.34663 6.42728 4.34663C6.34728 4.3733 6.26728 4.39997 6.18728 4.42663C6.16061 4.42663 6.16061 4.4533 6.13394 4.4533C6.08061 4.47997 6.00061 4.50663 5.94728 4.5333C5.94728 4.5333 5.92061 4.5333 5.92061 4.55997L3.86728 2.2133C4.80061 1.5733 5.92061 1.2533 7.06728 1.2533C10.2139 1.2533 12.8006 3.8133 12.8006 6.98663C12.7739 7.30663 12.7473 7.6533 12.6673 8.02663Z" fill="#DA0444"/>
</svg>
